<?xml version="1.0" encoding="UTF-8" standalone="no"?>
<!-- Created with Inkscape (http://www.inkscape.org/) -->

<svg
   width="94.866241mm"
   height="27.955875mm"
   viewBox="0 0 94.866241 27.955875"
   version="1.1"
   id="svg1"
   xml:space="preserve"
   xmlns="http://www.w3.org/2000/svg"
   xmlns:svg="http://www.w3.org/2000/svg"><defs
     id="defs1" /><g
     id="layer1"
     transform="translate(-0.99794128,-0.84690515)"><g
       id="g1"
       transform="matrix(0.26458333,0,0,0.26458333,59.331906,132.36042)"><path
         d="m -136.53483,-497.05896 h -49.08 c -3.69,0 -7.09,1.97 -8.94,5.16 l -24.54,42.51 c -1.84,3.19 -1.84,7.13 0,10.32 l 24.54,42.51 c 1.84,3.19 5.25,5.16 8.94,5.16 h 49.08 c 3.69,0 7.09,-1.97 8.94,-5.16 l 24.54,-42.51 c 1.84,-3.19 1.84,-7.13 0,-10.32 l -24.54,-42.51 c -1.84,-3.19 -5.25,-5.16 -8.94,-5.16 z"
         fill="#4185f4"
         id="path1" /><path
         d="m -131.23483,-428.20896 v -9.66 a 1.5,1.5 0 0 0 -1.5,-1.5 h -6.27 v -12.13 h 6.27 a 1.5,1.5 0 0 0 1.5,-1.5 v -9.67 c 2.59,-0.67 4.5,-3.01 4.5,-5.8 0,-3.31 -2.69,-6 -6,-6 -3.31,0 -6,2.69 -6,6 0,2.79 1.91,5.14 4.5,5.8 v 8.17 h -4.77 v -4.27 c 0,-4.23 -3.43,-7.66 -7.66,-7.66 h -12.62 v -6.94 c 2.59,-0.67 4.5,-3.01 4.5,-5.8 0,-3.31 -2.69,-6 -6,-6 -3.31,0 -6,2.69 -6,6 0,2.79 1.91,5.14 4.5,5.8 v 6.94 h -12.61 c -4.23,0 -7.66,3.43 -7.66,7.66 v 4.27 h -5.35 v -8.17 c 2.59,-0.67 4.5,-3.01 4.5,-5.8 0,-3.31 -2.69,-6 -6,-6 -3.31,0 -6,2.69 -6,6 0,2.79 1.91,5.14 4.5,5.8 v 9.67 a 1.5,1.5 0 0 0 1.5,1.5 h 6.85 v 12.13 h -6.85 a 1.5,1.5 0 0 0 -1.5,1.5 v 9.66 c -2.59,0.67 -4.5,3.01 -4.5,5.8 0,3.31 2.69,6 6,6 3.31,0 6,-2.69 6,-6 0,-2.79 -1.91,-5.14 -4.5,-5.8 v -8.16 h 5.35 v 5.83 c 0,4.23 3.43,7.66 7.66,7.66 h 12.62 v 7.8 c -2.59,0.67 -4.5,3.01 -4.5,5.8 0,3.31 2.69,6 6,6 3.31,0 6,-2.69 6,-6 0,-2.79 -1.91,-5.14 -4.5,-5.8 v -7.8 h 12.62 c 4.23,0 7.66,-3.43 7.66,-7.66 v -5.83 h 4.77 v 8.16 c -2.59,0.67 -4.5,3.01 -4.5,5.8 0,3.31 2.69,6 6,6 3.31,0 6,-2.69 6,-6 -0.01,-2.79 -1.93,-5.13 -4.51,-5.8 z m -4.69,-40.26 c 0,-1.76 1.42,-3.18 3.18,-3.18 1.76,0 3.18,1.42 3.18,3.18 0,1.76 -1.42,3.18 -3.18,3.18 -1.76,0 -3.18,-1.42 -3.18,-3.18 z m -56.67,0 c 0,-1.76 1.42,-3.18 3.18,-3.18 1.76,0 3.18,1.42 3.18,3.18 0,1.76 -1.42,3.18 -3.18,3.18 -1.76,0 -3.18,-1.42 -3.18,-3.18 z m 6.37,46.07 c 0,1.76 -1.42,3.18 -3.18,3.18 -1.76,0 -3.18,-1.42 -3.18,-3.18 0,-1.76 1.42,-3.18 3.18,-3.18 1.76,0 3.18,1.42 3.18,3.18 z m 22.26,-56.78 c 0,-1.76 1.42,-3.18 3.18,-3.18 1.76,0 3.18,1.42 3.18,3.18 0,1.76 -1.42,3.18 -3.18,3.18 -1.76,0 -3.18,-1.42 -3.18,-3.18 z m 6.36,69.9 c 0,1.76 -1.42,3.18 -3.18,3.18 -1.76,0 -3.18,-1.42 -3.18,-3.18 0,-1.76 1.42,-3.18 3.18,-3.18 1.76,0 3.18,1.42 3.18,3.18 z m 10.4,-26.89 -10.35,-18.4 c -0.46,-0.78 -1.56,-0.82 -2.01,0 l -11.9,20.28 c -0.41,0.69 0.27,1.51 1.01,1.28 l 13.64,-4.26 c 0.5,-0.18 0.78,-0.78 0.5,-1.24 l -1.88,-3.34 c -0.27,-0.6 -1.01,-0.6 -1.28,-0.09 l -3.2,4.94 -3.49,-2.23 5.72,-8.93 c 0.64,-0.96 1.97,-1.28 3.02,-0.5 0.23,0.18 0.41,0.41 0.55,0.64 l 5.86,10.53 a 2.07,2.07 0 0 1 0.27,0.78 c 0.09,1.05 -0.55,1.92 -1.42,2.2 l -24.3,7.68 a 2.42,2.42 0 0 1 -0.6,0.09 c -0.6,0 -1.24,-0.27 -1.6,-0.78 -0.55,-0.69 -0.6,-1.6 -0.18,-2.33 l 18.54,-31.73 c 0.37,-0.64 1.05,-1.01 1.83,-1.01 0.73,0 1.42,0.41 1.79,1.05 l 14.24,25.36 h -4.76 z m 14.47,16.95 c -1.76,0 -3.18,-1.42 -3.18,-3.18 0,-1.76 1.42,-3.18 3.18,-3.18 1.76,0 3.18,1.42 3.18,3.18 a 3.19,3.19 0 0 1 -3.18,3.18 z"
         fill="#ffffff"
         id="path2" /><g
         id="text1"
         style="font-size:33.0187px;stroke-width:2.75156"
         aria-label="SAM-skeleton"><path
           style="font-weight:bold;font-family:'Segoe UI';-inkscape-font-specification:'Segoe UI Bold'"
           d="m -65.825384,-438.64305 v -5.15917 q 1.40265,1.17693 3.047136,1.77346 1.644486,0.58041 3.321217,0.58041 0.983467,0 1.708976,-0.17735 0.74163,-0.17734 1.225303,-0.48367 0.499795,-0.32245 0.741631,-0.74163 0.241836,-0.4353 0.241836,-0.9351 0,-0.67714 -0.386938,-1.20918 -0.386938,-0.53204 -1.064079,-0.98347 -0.661019,-0.45142 -1.579997,-0.87061 -0.918977,-0.41918 -1.983056,-0.85449 -2.708565,-1.12856 -4.046726,-2.75693 -1.322037,-1.62836 -1.322037,-3.93387 0,-1.80571 0.725508,-3.0955 0.725509,-1.30591 1.966934,-2.14428 1.257549,-0.83837 2.902035,-1.2253 1.644486,-0.40306 3.482441,-0.40306 1.80571,0 3.192237,0.22571 1.40265,0.20959 2.579586,0.66102 v 4.8206 q -0.580407,-0.40306 -1.273671,-0.70939 -0.677141,-0.30632 -1.402649,-0.49979 -0.725509,-0.20959 -1.451017,-0.30633 -0.709387,-0.0967 -1.354283,-0.0967 -0.886733,0 -1.612241,0.17735 -0.725509,0.16122 -1.225304,0.46755 -0.499794,0.30632 -0.773875,0.74163 -0.274081,0.41918 -0.274081,0.95122 0,0.58041 0.306326,1.04796 0.306325,0.45142 0.87061,0.87061 0.564284,0.40306 1.370405,0.80612 0.80612,0.38693 1.821832,0.80612 1.386528,0.5804 2.482852,1.24142 1.112446,0.6449 1.902444,1.46714 0.789999,0.82225 1.209181,1.88632 0.419183,1.04796 0.419183,2.45061 0,1.93469 -0.741631,3.25673 -0.725508,1.30591 -1.983057,2.12816 -1.257548,0.80612 -2.934279,1.16081 -1.660608,0.35469 -3.514685,0.35469 -1.902445,0 -3.627543,-0.32245 -1.708976,-0.32244 -2.966524,-0.96734 z m 39.90297,0.88673 h -5.675089 l -1.644486,-5.14305 h -8.22243 l -1.628363,5.14305 h -5.642844 l 8.415899,-23.11954 h 6.174883 z m -8.512633,-9.1414 -2.482852,-7.77101 q -0.274081,-0.87061 -0.386937,-2.07979 h -0.12898 q -0.08061,1.01571 -0.40306,2.0153 l -2.515096,7.8355 z m 37.7425635,9.1414 h -5.1430494 v -13.83303 q 0,-2.24101 0.193469,-4.94958 h -0.1289793 q -0.4030603,2.12816 -0.7255086,3.06326 l -5.4171304,15.71935 h -4.2563168 l -5.513865,-15.55812 q -0.225714,-0.62878 -0.725508,-3.22449 h -0.145102 q 0.209591,3.41795 0.209591,5.99754 v 12.78507 h -4.691622 v -23.11954 h 7.625901 l 4.723867,13.70405 q 0.564284,1.64449 0.822243,3.3051 h 0.096734 q 0.4353052,-1.91857 0.9189775,-3.33734 l 4.7238667,-13.67181 h 7.4324319 z"
           id="path3" /><path
           style="font-family:'Segoe UI Symbol';-inkscape-font-specification:'Segoe UI Symbol'"
           d="M 17.043814,-445.91426 H 8.240977 v -2.07979 h 8.802837 z m 3.756521,7.56141 v -2.83754 q 2.160403,1.59612 4.756111,1.59612 3.482441,0 3.482441,-2.32163 0,-0.66102 -0.306326,-1.11245 -0.290203,-0.46755 -0.80612,-0.82224 -0.499795,-0.35469 -1.193059,-0.62877 -0.677141,-0.29021 -1.467139,-0.59653 -1.096324,-0.43531 -1.93469,-0.87061 -0.822243,-0.45143 -1.386527,-0.99959 -0.548162,-0.56429 -0.838366,-1.27367 -0.274081,-0.70939 -0.274081,-1.66061 0,-1.16081 0.53204,-2.04755 0.53204,-0.90285 1.418772,-1.49938 0.886733,-0.61265 2.015302,-0.91898 1.144691,-0.30632 2.353872,-0.30632 2.144281,0 3.837134,0.74163 v 2.67632 q -1.821833,-1.19306 -4.191827,-1.19306 -0.741631,0 -1.33816,0.17734 -0.59653,0.16123 -1.031835,0.46755 -0.419182,0.30633 -0.661019,0.74164 -0.225713,0.41918 -0.225713,0.9351 0,0.64489 0.225713,1.0802 0.241837,0.4353 0.693264,0.77387 0.451428,0.33857 1.096324,0.61265 0.644897,0.27409 1.46714,0.59653 1.096324,0.41919 1.966934,0.87061 0.87061,0.43531 1.483262,0.99959 0.612651,0.54817 0.9351,1.27367 0.33857,0.72551 0.33857,1.7251 0,1.22531 -0.548162,2.12816 -0.532039,0.90286 -1.434894,1.49938 -0.902855,0.59653 -2.079791,0.88674 -1.176937,0.2902 -2.466729,0.2902 -2.547342,0 -4.417541,-0.98347 z m 28.714015,0.59653 h -3.708154 l -7.287331,-7.93222 h -0.06449 v 7.93222 H 35.8103 v -24.44157 h 2.644076 v 15.49363 h 0.06449 l 6.932638,-7.56141 h 3.466318 l -7.658146,7.96447 z m 15.31629,-7.59365 H 53.174136 q 0.06449,2.75693 1.483262,4.25631 1.418772,1.49939 3.901624,1.49939 2.789177,0 5.126926,-1.83796 v 2.48285 q -2.176525,1.58 -5.755701,1.58 -3.498563,0 -5.497742,-2.24101 -1.999179,-2.25714 -1.999179,-6.33611 0,-3.85326 2.176525,-6.27162 2.192649,-2.43448 5.433253,-2.43448 3.240605,0 5.01407,2.09591 1.773466,2.09591 1.773466,5.82019 z m -2.708565,-2.24102 q -0.01612,-2.28938 -1.112447,-3.56305 -1.080201,-1.27367 -3.014891,-1.27367 -1.8702,0 -3.176115,1.33816 -1.305915,1.33816 -1.612241,3.49856 z m 9.351,9.83467 H 68.829 v -24.44157 h 2.644075 z m 18.621389,-7.59365 H 78.43796 q 0.06449,2.75693 1.483262,4.25631 1.418773,1.49939 3.901624,1.49939 2.789177,0 5.126927,-1.83796 v 2.48285 q -2.176526,1.58 -5.755701,1.58 -3.498563,0 -5.497743,-2.24101 -1.999179,-2.25714 -1.999179,-6.33611 0,-3.85326 2.176526,-6.27162 2.192648,-2.43448 5.433253,-2.43448 3.240605,0 5.01407,2.09591 1.773465,2.09591 1.773465,5.82019 z m -2.708565,-2.24102 q -0.01612,-2.28938 -1.112446,-3.56305 -1.080202,-1.27367 -3.014891,-1.27367 -1.8702,0 -3.176116,1.33816 -1.305915,1.33816 -1.612241,3.49856 z m 14.365071,9.67345 q -0.9351,0.51592 -2.466729,0.51592 -4.336929,0 -4.336929,-4.83673 v -9.77018 h -2.837544 v -2.25714 h 2.837544 v -4.0306 l 2.644076,-0.85449 v 4.88509 h 4.159582 v 2.25714 h -4.159582 v 9.30263 q 0,1.66061 0.564284,2.37 0.564285,0.70938 1.870198,0.70938 0.99959,0 1.7251,-0.54816 z m 10.17323,0.54816 q -3.65979,0 -5.85243,-2.3055 -2.17653,-2.32163 -2.17653,-6.14264 0,-4.15959 2.27326,-6.49734 2.27326,-2.33774 6.14264,-2.33774 3.69203,0 5.7557,2.27326 2.07979,2.27326 2.07979,6.30386 0,3.94999 -2.24101,6.33611 -2.2249,2.36999 -5.98142,2.36999 z m 0.19347,-15.05833 q -2.54734,0 -4.0306,1.74122 -1.48326,1.7251 -1.48326,4.77223 0,2.93428 1.49938,4.62713 1.49938,1.69286 4.01448,1.69286 2.56346,0 3.93387,-1.66061 1.38653,-1.66061 1.38653,-4.72387 0,-3.0955 -1.38653,-4.77223 -1.37041,-1.67673 -3.93387,-1.67673 z m 25.95708,14.67139 h -2.64407 v -9.41549 q 0,-5.2559 -3.83714,-5.2559 -1.98305,0 -3.28897,1.49938 -1.28979,1.48326 -1.28979,3.75652 v 9.41549 h -2.64408 v -16.50935 h 2.64408 v 2.74081 h 0.0645 q 1.8702,-3.12774 5.41713,-3.12774 2.70856,0 4.14346,1.75734 1.43489,1.74122 1.43489,5.04631 z"
           id="path4" /></g></g></g></svg>
