<svg xmlns="http://www.w3.org/2000/svg" width="358.549" height="105.66" viewBox="0 0 94.866 27.956"><g transform="matrix(.264583 0 0 .264583 58.333965 131.513515)"><path d="M-136.535-497.059h-49.08c-3.69 0-7.09 1.97-8.94 5.16l-24.54 42.51c-1.84 3.19-1.84 7.13 0 10.32l24.54 42.51c1.84 3.19 5.25 5.16 8.94 5.16h49.08c3.69 0 7.09-1.97 8.94-5.16l24.54-42.51c1.84-3.19 1.84-7.13 0-10.32l-24.54-42.51c-1.84-3.19-5.25-5.16-8.94-5.16z" fill="#4185f4"/><path d="M-131.235-428.209v-9.66a1.5 1.5 0 0 0-1.5-1.5h-6.27v-12.13h6.27a1.5 1.5 0 0 0 1.5-1.5v-9.67c2.59-.67 4.5-3.01 4.5-5.8 0-3.31-2.69-6-6-6s-6 2.69-6 6c0 2.79 1.91 5.14 4.5 5.8v8.17h-4.77v-4.27c0-4.23-3.43-7.66-7.66-7.66h-12.62v-6.94c2.59-.67 4.5-3.01 4.5-5.8 0-3.31-2.69-6-6-6s-6 2.69-6 6c0 2.79 1.91 5.14 4.5 5.8v6.94h-12.61c-4.23 0-7.66 3.43-7.66 7.66v4.27h-5.35v-8.17c2.59-.67 4.5-3.01 4.5-5.8 0-3.31-2.69-6-6-6s-6 2.69-6 6c0 2.79 1.91 5.14 4.5 5.8v9.67a1.5 1.5 0 0 0 1.5 1.5h6.85v12.13h-6.85a1.5 1.5 0 0 0-1.5 1.5v9.66c-2.59.67-4.5 3.01-4.5 5.8 0 3.31 2.69 6 6 6s6-2.69 6-6c0-2.79-1.91-5.14-4.5-5.8v-8.16h5.35v5.83c0 4.23 3.43 7.66 7.66 7.66h12.62v7.8c-2.59.67-4.5 3.01-4.5 5.8 0 3.31 2.69 6 6 6s6-2.69 6-6c0-2.79-1.91-5.14-4.5-5.8v-7.8h12.62c4.23 0 7.66-3.43 7.66-7.66v-5.83h4.77v8.16c-2.59.67-4.5 3.01-4.5 5.8 0 3.31 2.69 6 6 6s6-2.69 6-6c-.01-2.79-1.93-5.13-4.51-5.8zm-4.69-40.26c0-1.76 1.42-3.18 3.18-3.18s3.18 1.42 3.18 3.18-1.42 3.18-3.18 3.18-3.18-1.42-3.18-3.18zm-56.67 0c0-1.76 1.42-3.18 3.18-3.18s3.18 1.42 3.18 3.18-1.42 3.18-3.18 3.18-3.18-1.42-3.18-3.18zm6.37 46.07c0 1.76-1.42 3.18-3.18 3.18s-3.18-1.42-3.18-3.18 1.42-3.18 3.18-3.18 3.18 1.42 3.18 3.18zm22.26-56.78c0-1.76 1.42-3.18 3.18-3.18s3.18 1.42 3.18 3.18-1.42 3.18-3.18 3.18-3.18-1.42-3.18-3.18zm6.36 69.9c0 1.76-1.42 3.18-3.18 3.18s-3.18-1.42-3.18-3.18 1.42-3.18 3.18-3.18 3.18 1.42 3.18 3.18zm10.4-26.89l-10.35-18.4c-.46-.78-1.56-.82-2.01 0l-11.9 20.28c-.41.69.27 1.51 1.01 1.28l13.64-4.26c.5-.18.78-.78.5-1.24l-1.88-3.34c-.27-.6-1.01-.6-1.28-.09l-3.2 4.94-3.49-2.23 5.72-8.93c.64-.96 1.97-1.28 3.02-.5.23.18.41.41.55.64l5.86 10.53a2.07 2.07 0 0 1 .27.78c.09 1.05-.55 1.92-1.42 2.2l-24.3 7.68a2.42 2.42 0 0 1-.6.09c-.6 0-1.24-.27-1.6-.78-.55-.69-.6-1.6-.18-2.33l18.54-31.73c.37-.64 1.05-1.01 1.83-1.01.73 0 1.42.41 1.79 1.05l14.24 25.36h-4.76zm14.47 16.95c-1.76 0-3.18-1.42-3.18-3.18s1.42-3.18 3.18-3.18 3.18 1.42 3.18 3.18a3.19 3.19 0 0 1-3.18 3.18z" fill="#fff"/><path d="M-65.825-438.643v-5.159q1.403 1.177 3.047 1.773 1.644.58 3.321.58.983 0 1.709-.177.742-.177 1.225-.484.5-.322.742-.742.242-.435.242-.935 0-.677-.387-1.209-.387-.532-1.064-.983-.661-.451-1.58-.871-.919-.419-1.983-.854-2.709-1.129-4.047-2.757-1.322-1.628-1.322-3.934 0-1.806.726-3.096.726-1.306 1.967-2.144 1.258-.838 2.902-1.225 1.644-.403 3.482-.403 1.806 0 3.192.226 1.403.21 2.58.661v4.821q-.58-.403-1.274-.709-.677-.306-1.403-.5-.726-.21-1.451-.306-.709-.097-1.354-.097-.887 0-1.612.177-.726.161-1.225.468-.5.306-.774.742-.274.419-.274.951 0 .58.306 1.048.306.451.871.871.564.403 1.37.806.806.387 1.822.806 1.387.58 2.483 1.241 1.112.645 1.902 1.467.79.822 1.209 1.886.419 1.048.419 2.451 0 1.935-.742 3.257-.726 1.306-1.983 2.128-1.258.806-2.934 1.161-1.661.355-3.515.355-1.902 0-3.628-.322-1.709-.322-2.967-.967zm39.903.887h-5.675l-1.644-5.143h-8.222l-1.628 5.143h-5.643l8.416-23.12h6.175zm-8.513-9.141l-2.483-7.771q-.274-.871-.387-2.08h-.129q-.081 1.016-.403 2.015l-2.515 7.836zm37.743 9.141h-5.143v-13.833q0-2.241.193-4.95h-.129q-.403 2.128-.726 3.063l-5.417 15.719h-4.256l-5.514-15.558q-.226-.629-.726-3.224h-.145q.21 3.418.21 5.998v12.785h-4.692v-23.12h7.626l4.724 13.704q.564 1.644.822 3.305h.097q.435-1.919.919-3.337l4.724-13.672h7.432zm13.736-8.158H8.241v-2.08h8.803zm3.757 7.561v-2.838q2.16 1.596 4.756 1.596 3.482 0 3.482-2.322 0-.661-.306-1.112-.29-.468-.806-.822-.5-.355-1.193-.629-.677-.29-1.467-.597-1.096-.435-1.935-.871-.822-.451-1.387-1-.548-.564-.838-1.274-.274-.709-.274-1.661 0-1.161.532-2.048.532-.903 1.419-1.499.887-.613 2.015-.919 1.145-.306 2.354-.306 2.144 0 3.837.742v2.676q-1.822-1.193-4.192-1.193-.742 0-1.338.177-.597.161-1.032.468-.419.306-.661.742-.226.419-.226.935 0 .645.226 1.08.242.435.693.774.451.339 1.096.613.645.274 1.467.597 1.096.419 1.967.871.871.435 1.483 1 .613.548.935 1.274.339.726.339 1.725 0 1.225-.548 2.128-.532.903-1.435 1.499-.903.597-2.08.887-1.177.29-2.467.29-2.547 0-4.418-.983zm28.714.597h-3.708l-7.287-7.932h-.064v7.932H35.81v-24.442h2.644v15.494h.064l6.933-7.561h3.466l-7.658 7.964zm15.316-7.594H53.174q.064 2.757 1.483 4.256 1.419 1.499 3.902 1.499 2.789 0 5.127-1.838v2.483q-2.177 1.58-5.756 1.58-3.499 0-5.498-2.241-1.999-2.257-1.999-6.336 0-3.853 2.177-6.272 2.193-2.434 5.433-2.434 3.241 0 5.014 2.096 1.773 2.096 1.773 5.82zm-2.709-2.241q-.016-2.289-1.112-3.563-1.08-1.274-3.015-1.274-1.87 0-3.176 1.338-1.306 1.338-1.612 3.499zm9.351 9.835h-2.644v-24.442h2.644zm18.621-7.594H78.438q.064 2.757 1.483 4.256 1.419 1.499 3.902 1.499 2.789 0 5.127-1.838v2.483q-2.177 1.58-5.756 1.58-3.499 0-5.498-2.241-1.999-2.257-1.999-6.336 0-3.853 2.177-6.272 2.193-2.434 5.433-2.434 3.241 0 5.014 2.096 1.773 2.096 1.773 5.82zm-2.709-2.241q-.016-2.289-1.112-3.563-1.08-1.274-3.015-1.274-1.87 0-3.176 1.338-1.306 1.338-1.612 3.499zm14.365 9.673q-.935.516-2.467.516-4.337 0-4.337-4.837v-9.77H92.11v-2.257h2.838v-4.031l2.644-.854v4.885h4.16v2.257h-4.16v9.303q0 1.661.564 2.37.564.709 1.87.709 1 0 1.725-.548zm10.173.548q-3.66 0-5.852-2.305-2.177-2.322-2.177-6.143 0-4.16 2.273-6.497 2.273-2.338 6.143-2.338 3.692 0 5.756 2.273 2.08 2.273 2.08 6.304 0 3.95-2.241 6.336-2.225 2.37-5.981 2.37zm.193-15.058q-2.547 0-4.031 1.741-1.483 1.725-1.483 4.772 0 2.934 1.499 4.627 1.499 1.693 4.014 1.693 2.563 0 3.934-1.661 1.387-1.661 1.387-4.724 0-3.096-1.387-4.772-1.37-1.677-3.934-1.677zm25.957 14.671h-2.644v-9.415q0-5.256-3.837-5.256-1.983 0-3.289 1.499-1.29 1.483-1.29 3.757v9.415h-2.644v-16.509h2.644v2.741h.064q1.87-3.128 5.417-3.128 2.709 0 4.143 1.757 1.435 1.741 1.435 5.046z"/></g></svg>
